<mxfile host="app.diagrams.net" modified="2024-04-27T11:54:41.600Z" agent="Mozilla/5.0 (Windows NT 10.0; Win64; x64) AppleWebKit/537.36 (KHTML, like Gecko) Chrome/124.0.0.0 Safari/537.36" etag="QbMB-_AMfCJ0dPvJyJes" version="24.3.0" type="device">
  <diagram name="Stránka-1" id="dgNCbD_q-P_MrBVbR7Jg">
    <mxGraphModel dx="1034" dy="446" grid="1" gridSize="10" guides="1" tooltips="1" connect="1" arrows="1" fold="1" page="1" pageScale="1" pageWidth="850" pageHeight="1100" math="0" shadow="0">
      <root>
        <mxCell id="0" />
        <mxCell id="1" parent="0" />
        <mxCell id="7FbfTPjdWn3cD7pao0Ze-7" style="edgeStyle=orthogonalEdgeStyle;rounded=0;orthogonalLoop=1;jettySize=auto;html=1;entryX=1;entryY=0.5;entryDx=0;entryDy=0;" parent="1" source="7FbfTPjdWn3cD7pao0Ze-1" target="7FbfTPjdWn3cD7pao0Ze-2" edge="1">
          <mxGeometry relative="1" as="geometry" />
        </mxCell>
        <mxCell id="7FbfTPjdWn3cD7pao0Ze-8" style="edgeStyle=orthogonalEdgeStyle;rounded=0;orthogonalLoop=1;jettySize=auto;html=1;entryX=0.5;entryY=1;entryDx=0;entryDy=0;" parent="1" source="7FbfTPjdWn3cD7pao0Ze-1" target="7FbfTPjdWn3cD7pao0Ze-6" edge="1">
          <mxGeometry relative="1" as="geometry" />
        </mxCell>
        <mxCell id="7FbfTPjdWn3cD7pao0Ze-9" style="edgeStyle=orthogonalEdgeStyle;rounded=0;orthogonalLoop=1;jettySize=auto;html=1;entryX=0;entryY=0.5;entryDx=0;entryDy=0;" parent="1" source="7FbfTPjdWn3cD7pao0Ze-1" target="7FbfTPjdWn3cD7pao0Ze-5" edge="1">
          <mxGeometry relative="1" as="geometry" />
        </mxCell>
        <mxCell id="7FbfTPjdWn3cD7pao0Ze-10" style="edgeStyle=orthogonalEdgeStyle;rounded=0;orthogonalLoop=1;jettySize=auto;html=1;entryX=0.5;entryY=0;entryDx=0;entryDy=0;" parent="1" source="7FbfTPjdWn3cD7pao0Ze-1" target="7FbfTPjdWn3cD7pao0Ze-4" edge="1">
          <mxGeometry relative="1" as="geometry" />
        </mxCell>
        <mxCell id="7FbfTPjdWn3cD7pao0Ze-11" style="edgeStyle=orthogonalEdgeStyle;rounded=0;orthogonalLoop=1;jettySize=auto;html=1;entryX=0.5;entryY=0;entryDx=0;entryDy=0;" parent="1" source="7FbfTPjdWn3cD7pao0Ze-1" target="7FbfTPjdWn3cD7pao0Ze-3" edge="1">
          <mxGeometry relative="1" as="geometry" />
        </mxCell>
        <mxCell id="ZfRheqsRWi35AD3zYSk2-2" style="edgeStyle=orthogonalEdgeStyle;rounded=0;orthogonalLoop=1;jettySize=auto;html=1;entryX=0.5;entryY=1;entryDx=0;entryDy=0;" parent="1" source="7FbfTPjdWn3cD7pao0Ze-1" target="ZfRheqsRWi35AD3zYSk2-1" edge="1">
          <mxGeometry relative="1" as="geometry" />
        </mxCell>
        <mxCell id="t4cj1JgWegMJuJHj_MGC-2" style="edgeStyle=orthogonalEdgeStyle;rounded=0;orthogonalLoop=1;jettySize=auto;html=1;entryX=0;entryY=0.5;entryDx=0;entryDy=0;" edge="1" parent="1" source="7FbfTPjdWn3cD7pao0Ze-1" target="t4cj1JgWegMJuJHj_MGC-1">
          <mxGeometry relative="1" as="geometry" />
        </mxCell>
        <mxCell id="t4cj1JgWegMJuJHj_MGC-4" style="edgeStyle=orthogonalEdgeStyle;rounded=0;orthogonalLoop=1;jettySize=auto;html=1;entryX=1;entryY=0.5;entryDx=0;entryDy=0;" edge="1" parent="1" source="7FbfTPjdWn3cD7pao0Ze-1" target="t4cj1JgWegMJuJHj_MGC-3">
          <mxGeometry relative="1" as="geometry" />
        </mxCell>
        <mxCell id="7FbfTPjdWn3cD7pao0Ze-1" value="GUI" style="rounded=0;whiteSpace=wrap;html=1;fillColor=#EA6B66;" parent="1" vertex="1">
          <mxGeometry x="340" y="250" width="120" height="60" as="geometry" />
        </mxCell>
        <mxCell id="7FbfTPjdWn3cD7pao0Ze-2" value="Hlavní menu" style="rounded=0;whiteSpace=wrap;html=1;" parent="1" vertex="1">
          <mxGeometry x="160" y="210" width="120" height="60" as="geometry" />
        </mxCell>
        <mxCell id="7FbfTPjdWn3cD7pao0Ze-3" value="Pause menu" style="rounded=0;whiteSpace=wrap;html=1;" parent="1" vertex="1">
          <mxGeometry x="260" y="360" width="120" height="60" as="geometry" />
        </mxCell>
        <mxCell id="7FbfTPjdWn3cD7pao0Ze-4" value="Control menu" style="rounded=0;whiteSpace=wrap;html=1;" parent="1" vertex="1">
          <mxGeometry x="425" y="360" width="120" height="60" as="geometry" />
        </mxCell>
        <mxCell id="7FbfTPjdWn3cD7pao0Ze-5" value="Ukazatele strachu" style="rounded=0;whiteSpace=wrap;html=1;" parent="1" vertex="1">
          <mxGeometry x="530" y="210" width="120" height="60" as="geometry" />
        </mxCell>
        <mxCell id="7FbfTPjdWn3cD7pao0Ze-6" value="Minimapa" style="rounded=0;whiteSpace=wrap;html=1;" parent="1" vertex="1">
          <mxGeometry x="260" y="140" width="120" height="60" as="geometry" />
        </mxCell>
        <mxCell id="ZfRheqsRWi35AD3zYSk2-1" value="Dovednostní strom" style="rounded=0;whiteSpace=wrap;html=1;" parent="1" vertex="1">
          <mxGeometry x="425" y="140" width="120" height="60" as="geometry" />
        </mxCell>
        <mxCell id="t4cj1JgWegMJuJHj_MGC-1" value="Úspěchy" style="rounded=0;whiteSpace=wrap;html=1;" vertex="1" parent="1">
          <mxGeometry x="530" y="290" width="120" height="60" as="geometry" />
        </mxCell>
        <mxCell id="t4cj1JgWegMJuJHj_MGC-3" value="Obtížnost" style="rounded=0;whiteSpace=wrap;html=1;" vertex="1" parent="1">
          <mxGeometry x="160" y="290" width="120" height="60" as="geometry" />
        </mxCell>
      </root>
    </mxGraphModel>
  </diagram>
</mxfile>
